# xmcd
#
# Track frame offsets: 
#        150
#        27901
#        39742
#        60949
#        83564
#        102465
#        122986
#        141595
#        155212
#        173979
#        196318
#        216730
#        242785
#        263466
#        281275
#        304526
#
# Disc length: 4535 seconds
#
# Revision: 0
# Processed by: cddbd v1.5.2PL0 Copyright (c) Steve Scherf et al.
# Submitted via: ExactAudioCopy v0.95b4
#
DISCID=e911b510
DTITLE=Various Artist - The Best Blues ...Ever!
DYEAR=2012
DGENRE=Blues
TTITLE0=Gary Moore - Still Got The Blues (For You)
TTITLE1=J.J. Cale - Call Me The Breeze
TTITLE2=ZZ Top - Blue Jean Blues
TTITLE3=Stevie Ray Vaughan And Double Trouble - Dirty Pool
TTITLE4=Johnny Winter - It's My Life, Baby
TTITLE5=Lonnie Mack - If You Have To Know
TTITLE6=Robert Cray - Smoking Gun
TTITLE7=Albert Collins - Too Tired
TTITLE8=Dr. John - Goin' Back To New Orleans
TTITLE9=George Thorogood and The Destroyers - Bad To The Bone
TTITLE10=The Jeff Healey Band - Yer Blues
TTITLE11=Dr. John - Sweet Home New Orleans
TTITLE12=The Derek Trucks Band - I'd Rather Be Blind, Crippled and Crazy
TTITLE13=Joe Louis Walker - Too Drunk To Drive Drunk
TTITLE14=J.J. Cale - Sensitive Kind
TTITLE15=Gary Moore - Need Your Love So Bad
EXTD=
EXTT0=
EXTT1=
EXTT2=
EXTT3=
EXTT4=
EXTT5=
EXTT6=
EXTT7=
EXTT8=
EXTT9=
EXTT10=
EXTT11=
EXTT12=
EXTT13=
EXTT14=
EXTT15=
PLAYORDER=
